<svg width="34" height="34" viewBox="0 0 34 34" fill="none" xmlns="http://www.w3.org/2000/svg">
<path d="M33.3334 16.9953C33.3334 18.284 32.2887 19.3287 31 19.3287H24.3334C21.5719 19.3287 19.3334 21.5672 19.3334 24.3287V30.9953C19.3334 32.284 18.2887 33.3287 17 33.3287C15.7114 33.3287 14.6667 32.284 14.6667 30.9953V24.3287C14.6667 21.5672 12.4281 19.3287 9.66669 19.3287H3.00002C1.71136 19.3287 0.666687 18.284 0.666687 16.9953C0.666687 15.7067 1.71136 14.662 3.00002 14.662H9.66669C12.4281 14.662 14.6667 12.4234 14.6667 9.66199V2.99532C14.6667 1.70666 15.7114 0.661987 17 0.661987C18.2887 0.661987 19.3334 1.70666 19.3334 2.99532V9.66199C19.3334 12.4234 21.5719 14.662 24.3334 14.662H31C32.2887 14.662 33.3334 15.7067 33.3334 16.9953Z" fill="white"/>
</svg>
